<svg width="60" height="41" viewBox="0 0 60 41" fill="none" xmlns="http://www.w3.org/2000/svg">
<path d="M33.75 5.625H26.25V9.375H33.75V5.625Z" fill="#F5F5F5"/>
<path d="M33.75 19.875H26.25V23.625H33.75V19.875Z" fill="#F5F5F5"/>
<path d="M29.0625 31.125H21.5625V34.875H29.0625V31.125Z" fill="#F5F5F5"/>
<path d="M20.625 25.5H13.125V29.25H20.625V25.5Z" fill="#F5F5F5"/>
<path d="M46.875 25.5H39.375V29.25H46.875V25.5Z" fill="#F5F5F5"/>
<path d="M38.4375 31.125H30.9375V34.875H38.4375V31.125Z" fill="#F5F5F5"/>
<path d="M33.75 36.75H26.25V40.5H33.75V36.75Z" fill="#F5F5F5"/>
<path d="M24.375 19.875H9.375V23.625H24.375V19.875Z" fill="#F5F5F5"/>
<path d="M50.625 19.875H35.625V23.625H50.625V19.875Z" fill="#F5F5F5"/>
<path d="M18.75 0H3.75V3.75H18.75V0Z" fill="#F5F5F5"/>
<path d="M56.25 0H41.25V3.75H56.25V0Z" fill="#F5F5F5"/>
<path d="M37.5 25.5H22.5V29.25H37.5V25.5Z" fill="#F5F5F5"/>
<path d="M37.5 5.625V9.375H60V5.625H37.5Z" fill="#F5F5F5"/>
<path d="M0 5.625V9.375H22.5V5.625H0Z" fill="#F5F5F5"/>
<path d="M9.64852 17.8125H8.10952L5.53552 13.9155V17.8125H3.99652V11.4945H5.53552L8.10952 15.4095V11.4945H9.64852V17.8125Z" fill="#F5F5F5"/>
<path d="M15.6781 15.2205C15.6781 15.3645 15.6691 15.5145 15.6511 15.6705H12.1681C12.1921 15.9825 12.2911 16.2225 12.4651 16.3905C12.6451 16.5525 12.8641 16.6335 13.1221 16.6335C13.5061 16.6335 13.7731 16.4715 13.9231 16.1475H15.5611C15.4771 16.4775 15.3241 16.7745 15.1021 17.0385C14.8861 17.3025 14.6131 17.5095 14.2831 17.6595C13.9531 17.8095 13.5841 17.8845 13.1761 17.8845C12.6841 17.8845 12.2461 17.7795 11.8621 17.5695C11.4781 17.3595 11.1781 17.0595 10.9621 16.6695C10.7461 16.2795 10.6381 15.8235 10.6381 15.3015C10.6381 14.7795 10.7431 14.3235 10.9531 13.9335C11.1691 13.5435 11.4691 13.2435 11.8531 13.0335C12.2371 12.8235 12.6781 12.7185 13.1761 12.7185C13.6621 12.7185 14.0941 12.8205 14.4721 13.0245C14.8501 13.2285 15.1441 13.5195 15.3541 13.8975C15.5701 14.2755 15.6781 14.7165 15.6781 15.2205ZM14.1031 14.8155C14.1031 14.5515 14.0131 14.3415 13.8331 14.1855C13.6531 14.0295 13.4281 13.9515 13.1581 13.9515C12.9001 13.9515 12.6811 14.0265 12.5011 14.1765C12.3271 14.3265 12.2191 14.5395 12.1771 14.8155H14.1031Z" fill="#F5F5F5"/>
<path d="M18.209 13.6275C18.389 13.3515 18.614 13.1355 18.884 12.9795C19.154 12.8175 19.454 12.7365 19.784 12.7365V14.3655H19.361C18.977 14.3655 18.689 14.4495 18.497 14.6175C18.305 14.7795 18.209 15.0675 18.209 15.4815V17.8125H16.67V12.7905H18.209V13.6275Z" fill="#F5F5F5"/>
<path d="M20.3936 15.2925C20.3936 14.7765 20.4896 14.3235 20.6816 13.9335C20.8796 13.5435 21.1466 13.2435 21.4826 13.0335C21.8186 12.8235 22.1936 12.7185 22.6076 12.7185C22.9376 12.7185 23.2376 12.7875 23.5076 12.9255C23.7836 13.0635 23.9996 13.2495 24.1556 13.4835V11.1525H25.6946V17.8125H24.1556V17.0925C24.0116 17.3325 23.8046 17.5245 23.5346 17.6685C23.2706 17.8125 22.9616 17.8845 22.6076 17.8845C22.1936 17.8845 21.8186 17.7795 21.4826 17.5695C21.1466 17.3535 20.8796 17.0505 20.6816 16.6605C20.4896 16.2645 20.3936 15.8085 20.3936 15.2925ZM24.1556 15.3015C24.1556 14.9175 24.0476 14.6145 23.8316 14.3925C23.6216 14.1705 23.3636 14.0595 23.0576 14.0595C22.7516 14.0595 22.4906 14.1705 22.2746 14.3925C22.0646 14.6085 21.9596 14.9085 21.9596 15.2925C21.9596 15.6765 22.0646 15.9825 22.2746 16.2105C22.4906 16.4325 22.7516 16.5435 23.0576 16.5435C23.3636 16.5435 23.6216 16.4325 23.8316 16.2105C24.0476 15.9885 24.1556 15.6855 24.1556 15.3015Z" fill="#F5F5F5"/>
<path d="M39.96 17.625H38.421L35.847 13.728V17.625H34.308V11.307H35.847L38.421 15.222V11.307H39.96V17.625Z" fill="#F5F5F5"/>
<path d="M43.5416 17.697C43.0496 17.697 42.6056 17.592 42.2096 17.382C41.8196 17.172 41.5106 16.872 41.2826 16.482C41.0606 16.092 40.9496 15.636 40.9496 15.114C40.9496 14.598 41.0636 14.145 41.2916 13.755C41.5196 13.359 41.8316 13.056 42.2276 12.846C42.6236 12.636 43.0676 12.531 43.5596 12.531C44.0516 12.531 44.4956 12.636 44.8916 12.846C45.2876 13.056 45.5996 13.359 45.8276 13.755C46.0556 14.145 46.1696 14.598 46.1696 15.114C46.1696 15.63 46.0526 16.086 45.8186 16.482C45.5906 16.872 45.2756 17.172 44.8736 17.382C44.4776 17.592 44.0336 17.697 43.5416 17.697ZM43.5416 16.365C43.8356 16.365 44.0846 16.257 44.2886 16.041C44.4986 15.825 44.6036 15.516 44.6036 15.114C44.6036 14.712 44.5016 14.403 44.2976 14.187C44.0996 13.971 43.8536 13.863 43.5596 13.863C43.2596 13.863 43.0106 13.971 42.8126 14.187C42.6146 14.397 42.5156 14.706 42.5156 15.114C42.5156 15.516 42.6116 15.825 42.8036 16.041C43.0016 16.257 43.2476 16.365 43.5416 16.365Z" fill="#F5F5F5"/>
<path d="M49.965 16.32V17.625H49.182C48.6241 17.625 48.189 17.49 47.877 17.22C47.565 16.944 47.409 16.497 47.409 15.879V13.881H46.797V12.603H47.409V11.379H48.948V12.603H49.956V13.881H48.948V15.897C48.948 16.047 48.9841 16.155 49.056 16.221C49.128 16.287 49.248 16.32 49.416 16.32H49.965Z" fill="#F5F5F5"/>
<path d="M55.7363 15.033C55.7363 15.177 55.7273 15.327 55.7093 15.483H52.2263C52.2503 15.795 52.3493 16.035 52.5233 16.203C52.7033 16.365 52.9223 16.446 53.1803 16.446C53.5643 16.446 53.8313 16.284 53.9813 15.96H55.6193C55.5353 16.29 55.3823 16.587 55.1603 16.851C54.9443 17.115 54.6713 17.322 54.3413 17.472C54.0113 17.622 53.6423 17.697 53.2343 17.697C52.7423 17.697 52.3043 17.592 51.9203 17.382C51.5363 17.172 51.2363 16.872 51.0203 16.482C50.8043 16.092 50.6963 15.636 50.6963 15.114C50.6963 14.592 50.8013 14.136 51.0113 13.746C51.2273 13.356 51.5273 13.056 51.9113 12.846C52.2953 12.636 52.7363 12.531 53.2343 12.531C53.7203 12.531 54.1523 12.633 54.5303 12.837C54.9083 13.041 55.2023 13.332 55.4123 13.71C55.6283 14.088 55.7363 14.529 55.7363 15.033ZM54.1613 14.628C54.1613 14.364 54.0713 14.154 53.8913 13.998C53.7113 13.842 53.4863 13.764 53.2163 13.764C52.9583 13.764 52.7393 13.839 52.5593 13.989C52.3853 14.139 52.2773 14.352 52.2353 14.628H54.1613Z" fill="#F5F5F5"/>
</svg>
